<svg class="style_icon__utnVg AppWarningsItemWarning_icon__DcXlH AppWarningsItemSources_icon__Jalq7" role="presentation" stroke="currentColor" stroke-linecap="round" stroke-linejoin="round" xmlns="http://www.w3.org/2000/svg" viewBox="0 0 34 34" fill="none"><path d="M22.8 17.3a6.8 6.8 0 1 1-.48-2.31" stroke-dasharray="0 4.75"></path><path d="M22.9 13.7a7.88 7.88 0 1 1-1.72-2.13" stroke-dasharray="0 5.5" stroke-width="1.3"></path><path d="M24.6 14.7a9.04 9.04 0 1 1-1.48-2.77" stroke-dasharray="0 6.31" stroke-width="1.5"></path><path d="M26 16.2a10.08 10.08 0 1 1-1.05-3.34" stroke-dasharray="0 7.04" stroke-width="1.7"></path><path d="M27.2 17.9a11.21 11.21 0 1 1-.54-3.85" stroke-dasharray="0 7.82" stroke-width="1.75"></path><path d="M27.9 19.7a12.1 12.1 0 1 1 .03-4.2" stroke-dasharray="0 8.45" stroke-width="1.75"></path><path d="M28.3 21.9a13.06 13.06 0 1 1 .76-4.47" stroke-dasharray="0 9.12" stroke-width="1.7"></path><path d="M28.2 24a13.82 13.82 0 1 1 1.49-4.56" stroke-dasharray="0 9.65" stroke-width="1.6"></path><path d="M27.9 25.9a14.57 14.57 0 1 1 2.16-4.58" stroke-dasharray="0 10.17" stroke-width="1.5"></path><path d="M27.2 27.9a15.28 15.28 0 1 1 2.88-4.46" stroke-dasharray="0 10.67" stroke-width="1.3"></path><path d="M26.2 29.6a15.83 15.83 0 1 1 3.52-4.22" stroke-dasharray="0 11.05"></path></svg>